PathFileType	4	(X/Y/Z)	 New Session 109.trc
DataRate	CameraRate	NumFrames	NumMarkers	Units	OrigDataRate	OrigDataStartFrame	OrigNumFrames
100	100	25	14	m	100	1	1141
Frame#	Time	C7			T8			IJ			PX			AA			AC			AI			TS			SC			GH			LE			ME			US			RS			
		X1	Y1	Z1	X2	Y2	Z2	X3	Y3	Z3	X4	Y4	Z4	X5	Y5	Z5	X6	Y6	Z6	X7	Y7	Z7	X8	Y8	Z8	X9	Y9	Z9	X10	Y10	Z10	X11	Y11	Z11	X12	Y12	Z12	X13	Y13	Z13	X14	Y14	Z14	
1	0.0100	0.019786	0.106837	0.164673	0.020129	-0.106464	0.237735	0.000000	0.000000	0.000000	0.000889	-0.143458	-0.064545	0.213568	0.014068	0.156293	0.166486	0.050452	0.080021	0.097279	0.031573	0.207937	0.099281	-0.088287	0.241038	0.024543	0.008920	0.004306	0.226390	0.023166	0.115401	0.293245	-0.269445	0.082517	0.222194	-0.302826	0.138879	0.318909	-0.537282	0.016781	0.247327	-0.536042	-0.021151	
2	0.0200	0.019941	0.106823	0.164534	0.020272	-0.106446	0.237672	-0.000020	-0.000056	-0.000043	0.001078	-0.143538	-0.064600	0.213698	0.014046	0.156158	0.166628	0.050423	0.079867	0.097421	0.031589	0.207822	0.099437	-0.088215	0.240966	0.024646	0.008883	0.004202	0.226521	0.023153	0.115257	0.293318	-0.269521	0.082443	0.222280	-0.302877	0.138812	0.318933	-0.537383	0.016767	0.247318	-0.536110	-0.021081	
3	0.0300	0.020101	0.106781	0.164374	0.020410	-0.106428	0.237612	0.000013	-0.000151	-0.000131	0.001245	-0.143608	-0.064654	0.213830	0.014000	0.156025	0.166760	0.050381	0.079727	0.097573	0.031588	0.207706	0.099592	-0.088167	0.240902	0.024787	0.008815	0.004093	0.226634	0.023112	0.115111	0.293482	-0.269602	0.082346	0.222364	-0.302929	0.138746	0.318957	-0.537483	0.016757	0.247321	-0.536190	-0.021036	
4	0.0400	0.020261	0.106728	0.164207	0.020541	-0.106411	0.237553	0.000111	-0.000263	-0.000253	0.001391	-0.143666	-0.064708	0.213945	0.013941	0.155894	0.166879	0.050331	0.079607	0.097732	0.031574	0.207584	0.099742	-0.088142	0.240839	0.024926	0.008741	0.004002	0.226756	0.023066	0.114982	0.293698	-0.269681	0.082237	0.222443	-0.302979	0.138681	0.318985	-0.537576	0.016754	0.247325	-0.536278	-0.020995	
5	0.0500	0.020409	0.106696	0.164056	0.020664	-0.106396	0.237495	0.000269	-0.000358	-0.000389	0.001516	-0.143713	-0.064762	0.214034	0.013883	0.155771	0.166990	0.050285	0.079507	0.097887	0.031553	0.207456	0.099879	-0.088135	0.240767	0.025048	0.008679	0.003928	0.226908	0.023038	0.114898	0.293892	-0.269748	0.082142	0.222512	-0.303025	0.138621	0.319014	-0.537655	0.016761	0.247334	-0.536359	-0.020962	
6	0.0600	0.020539	0.106704	0.163938	0.020778	-0.106383	0.237434	0.000447	-0.000422	-0.000515	0.001622	-0.143750	-0.064818	0.214125	0.013840	0.155659	0.167096	0.050255	0.079424	0.098030	0.031538	0.207336	0.100002	-0.088137	0.240693	0.025163	0.008639	0.003856	0.227084	0.023036	0.114862	0.294018	-0.269800	0.082070	0.222567	-0.303063	0.138565	0.319037	-0.537720	0.016777	0.247354	-0.536425	-0.020952	
7	0.0700	0.020651	0.106746	0.163850	0.020884	-0.106374	0.237369	0.000605	-0.000462	-0.000624	0.001711	-0.143780	-0.064879	0.214253	0.013815	0.155561	0.167202	0.050238	0.079348	0.098156	0.031530	0.207229	0.100113	-0.088134	0.240658	0.025272	0.008621	0.003778	0.227236	0.023039	0.114843	0.294085	-0.269845	0.082016	0.222611	-0.303096	0.138514	0.319052	-0.537777	0.016794	0.247391	-0.536474	-0.020975	
8	0.0800	0.020759	0.106800	0.163776	0.020983	-0.106368	0.237298	0.000719	-0.000495	-0.000718	0.001785	-0.143807	-0.064944	0.214396	0.013788	0.155466	0.167314	0.050218	0.079271	0.098269	0.031518	0.207124	0.100219	-0.088117	0.240691	0.025373	0.008614	0.003694	0.227332	0.023014	0.114785	0.294126	-0.269895	0.081969	0.222650	-0.303125	0.138468	0.319060	-0.537834	0.016807	0.247441	-0.536520	-0.021027	
9	0.0900	0.020876	0.106837	0.163689	0.021077	-0.106365	0.237219	0.000795	-0.000529	-0.000803	0.001848	-0.143833	-0.065015	0.214522	0.013749	0.155366	0.167428	0.050182	0.079184	0.098376	0.031498	0.207013	0.100319	-0.088090	0.240764	0.025469	0.008597	0.003604	0.227395	0.022963	0.114691	0.294169	-0.269957	0.081929	0.222683	-0.303155	0.138425	0.319062	-0.537906	0.016812	0.247493	-0.536578	-0.021087	
10	0.1000	0.021003	0.106844	0.163582	0.021168	-0.106364	0.237133	0.000852	-0.000560	-0.000880	0.001904	-0.143859	-0.065091	0.214620	0.013694	0.155259	0.167536	0.050128	0.079082	0.098480	0.031474	0.206893	0.100409	-0.088071	0.240812	0.025568	0.008555	0.003505	0.227472	0.022905	0.114605	0.294228	-0.270027	0.081899	0.222713	-0.303190	0.138382	0.319055	-0.537998	0.016807	0.247529	-0.536653	-0.021123	
11	0.1100	0.021135	0.106832	0.163460	0.021259	-0.106363	0.237039	0.000901	-0.000571	-0.000945	0.001953	-0.143886	-0.065172	0.214689	0.013633	0.155151	0.167638	0.050066	0.078968	0.098582	0.031448	0.206770	0.100488	-0.088068	0.240793	0.025667	0.008492	0.003396	0.227552	0.022838	0.114519	0.294305	-0.270092	0.081889	0.222737	-0.303229	0.138337	0.319039	-0.538103	0.016800	0.247549	-0.536738	-0.021129	
12	0.1200	0.021262	0.106819	0.163335	0.021353	-0.106359	0.236939	0.000940	-0.000552	-0.000997	0.001999	-0.143914	-0.065256	0.214742	0.013577	0.155047	0.167739	0.050013	0.078854	0.098683	0.031427	0.206642	0.100558	-0.088078	0.240706	0.025753	0.008429	0.003282	0.227617	0.022766	0.114411	0.294383	-0.270142	0.081897	0.222760	-0.303272	0.138289	0.319022	-0.538202	0.016800	0.247561	-0.536821	-0.021121	
13	0.1300	0.021378	0.106819	0.163214	0.021454	-0.106351	0.236831	0.000960	-0.000511	-0.001042	0.002041	-0.143941	-0.065341	0.214800	0.013535	0.154944	0.167833	0.049978	0.078743	0.098779	0.031417	0.206512	0.100622	-0.088090	0.240560	0.025818	0.008390	0.003172	0.227685	0.022715	0.114300	0.294433	-0.270181	0.081906	0.222780	-0.303315	0.138238	0.319007	-0.538286	0.016812	0.247571	-0.536893	-0.021114	
14	0.1400	0.021479	0.106836	0.163099	0.021561	-0.106338	0.236713	0.000962	-0.000478	-0.001091	0.002081	-0.143968	-0.065427	0.214881	0.013506	0.154837	0.167913	0.049954	0.078625	0.098865	0.031422	0.206383	0.100681	-0.088102	0.240359	0.025866	0.008380	0.003067	0.227782	0.022700	0.114211	0.294431	-0.270226	0.081891	0.222801	-0.303357	0.138182	0.318992	-0.538358	0.016831	0.247581	-0.536954	-0.021117	
15	0.1500	0.021564	0.106865	0.162979	0.021671	-0.106322	0.236585	0.000960	-0.000481	-0.001160	0.002118	-0.143997	-0.065511	0.214970	0.013487	0.154725	0.167977	0.049931	0.078492	0.098941	0.031436	0.206258	0.100737	-0.088112	0.240112	0.025917	0.008376	0.002957	0.227885	0.022695	0.114124	0.294404	-0.270283	0.081838	0.222823	-0.303392	0.138122	0.318971	-0.538431	0.016849	0.247593	-0.537011	-0.021130	
16	0.1600	0.021642	0.106894	0.162847	0.021780	-0.106309	0.236453	0.000964	-0.000519	-0.001256	0.002153	-0.144029	-0.065594	0.215048	0.013465	0.154609	0.168037	0.049900	0.078347	0.099010	0.031449	0.206130	0.100790	-0.088119	0.239850	0.025983	0.008353	0.002841	0.227972	0.022670	0.114013	0.294415	-0.270348	0.081752	0.222845	-0.303419	0.138056	0.318947	-0.538513	0.016859	0.247607	-0.537073	-0.021146	
17	0.1700	0.021722	0.106915	0.162701	0.021884	-0.106299	0.236321	0.000975	-0.000573	-0.001378	0.002185	-0.144065	-0.065674	0.215111	0.013435	0.154488	0.168105	0.049860	0.078200	0.099076	0.031451	0.205999	0.100847	-0.088118	0.239620	0.026043	0.008302	0.002721	0.228045	0.022627	0.113878	0.294482	-0.270413	0.081649	0.222863	-0.303438	0.137988	0.318927	-0.538604	0.016863	0.247615	-0.537145	-0.021156	
18	0.1800	0.021809	0.106924	0.162544	0.021980	-0.106295	0.236192	0.000991	-0.000626	-0.001511	0.002211	-0.144104	-0.065751	0.215165	0.013402	0.154365	0.168177	0.049812	0.078053	0.099146	0.031440	0.205864	0.100909	-0.088109	0.239447	0.026084	0.008243	0.002606	0.228116	0.022579	0.113729	0.294573	-0.270474	0.081542	0.222876	-0.303450	0.137920	0.318916	-0.538692	0.016865	0.247616	-0.537223	-0.021157	
19	0.1900	0.021899	0.106922	0.162385	0.022064	-0.106292	0.236068	0.001007	-0.000663	-0.001635	0.002231	-0.144144	-0.065825	0.215217	0.013373	0.154242	0.168243	0.049759	0.077908	0.099216	0.031420	0.205728	0.100972	-0.088095	0.239321	0.026107	0.008209	0.002507	0.228192	0.022543	0.113571	0.294665	-0.270533	0.081435	0.222884	-0.303460	0.137851	0.318912	-0.538766	0.016863	0.247634	-0.537298	-0.021163	
20	0.2000	0.021985	0.106908	0.162224	0.022138	-0.106289	0.235946	0.001012	-0.000676	-0.001736	0.002243	-0.144185	-0.065895	0.215270	0.013357	0.154114	0.168303	0.049718	0.077757	0.099279	0.031406	0.205592	0.101026	-0.088079	0.239221	0.026113	0.008197	0.002420	0.228264	0.022521	0.113396	0.294742	-0.270588	0.081330	0.222891	-0.303471	0.137782	0.318904	-0.538824	0.016855	0.247701	-0.537363	-0.021194	
21	0.2100	0.022061	0.106888	0.162056	0.022208	-0.106283	0.235823	0.001000	-0.000671	-0.001811	0.002247	-0.144226	-0.065961	0.215323	0.013357	0.153973	0.168358	0.049703	0.077590	0.099337	0.031410	0.205455	0.101059	-0.088059	0.239129	0.026111	0.008191	0.002339	0.228309	0.022500	0.113186	0.294788	-0.270631	0.081229	0.222903	-0.303481	0.137711	0.318888	-0.538872	0.016836	0.247824	-0.537411	-0.021257	
22	0.2200	0.022125	0.106874	0.161885	0.022280	-0.106274	0.235696	0.000972	-0.000667	-0.001873	0.002246	-0.144267	-0.066026	0.215380	0.013367	0.153814	0.168402	0.049706	0.077405	0.099399	0.031429	0.205312	0.101065	-0.088032	0.239035	0.026108	0.008173	0.002252	0.228307	0.022464	0.112925	0.294805	-0.270662	0.081127	0.222922	-0.303490	0.137637	0.318866	-0.538916	0.016807	0.247944	-0.537451	-0.021324	
23	0.2300	0.022180	0.106881	0.161736	0.022358	-0.106262	0.235569	0.000937	-0.000683	-0.001937	0.002244	-0.144310	-0.066090	0.215449	0.013380	0.153636	0.168436	0.049704	0.077218	0.099470	0.031447	0.205154	0.101053	-0.087995	0.238931	0.026108	0.008139	0.002158	0.228276	0.022415	0.112632	0.294806	-0.270688	0.081016	0.222947	-0.303497	0.137561	0.318842	-0.538963	0.016771	0.247979	-0.537504	-0.021345	
24	0.2400	0.022235	0.106907	0.161612	0.022440	-0.106250	0.235444	0.000904	-0.000728	-0.002012	0.002243	-0.144354	-0.066156	0.215530	0.013385	0.153438	0.168468	0.049684	0.077042	0.099546	0.031458	0.204989	0.101059	-0.087956	0.238808	0.026114	0.008094	0.002063	0.228269	0.022373	0.112362	0.294799	-0.270719	0.080890	0.222976	-0.303502	0.137481	0.318820	-0.539014	0.016731	0.247929	-0.537583	-0.021311	
25	0.2500	0.022294	0.106931	0.161497	0.022519	-0.106236	0.235328	0.000890	-0.000785	-0.002097	0.002244	-0.144398	-0.066227	0.215612	0.013376	0.153224	0.168501	0.049645	0.076879	0.099624	0.031465	0.204834	0.101122	-0.087929	0.238661	0.026134	0.008049	0.001973	0.228304	0.022343	0.112146	0.294793	-0.270758	0.080750	0.223005	-0.303508	0.137396	0.318801	-0.539066	0.016688	0.247852	-0.537681	-0.021261	
